/* XPM */
static char *_3186f0ba6074ff0d8aff3f674d49ca7gQpPjwSOYCtL1aYl[] = {
/* columns rows colors chars-per-pixel */
"16 16 72 1 ",
"  c None",
". c #290000",
"X c #2B0D0A",
"o c #400002",
"O c #5B0308",
"+ c #4A1914",
"@ c #531214",
"# c #68050B",
"$ c #821916",
"% c #821B18",
"& c #8C1E2A",
"* c #852728",
"= c #B33F33",
"- c #B13837",
"; c #C30C32",
": c #DD193F",
"> c #CB2D3D",
", c #9E4E2F",
"< c #B34B38",
"1 c #B55033",
"2 c #BD503A",
"3 c #BB753F",
"4 c #F21446",
"5 c #F91B49",
"6 c #DB3343",
"7 c #F32347",
"8 c #F22A48",
"9 c #F72949",
"0 c #F9284A",
"q c #EB3347",
"w c #EB3D48",
"e c #F4354A",
"r c #F8374B",
"t c #D74D44",
"y c #EB4249",
"u c #EC4449",
"i c #EC484A",
"p c #EC4E4B",
"a c #ED4E4B",
"s c #FB454E",
"d c #F44B4D",
"f c #EE534C",
"g c #EF534C",
"h c #E55A4A",
"j c #ED5B4C",
"k c #F4514D",
"l c #CA6A41",
"z c #EE654E",
"x c #F0684F",
"c c #E9714D",
"v c #EA714C",
"b c #F16F50",
"n c #FF6B55",
"m c #FF6F54",
"M c #F77553",
"N c #F37851",
"B c #F17B51",
"V c #F68154",
"C c #F78254",
"Z c #FE9357",
"A c #F49D56",
"S c #FF9059",
"D c #FFA55D",
"F c #F5A858",
"G c #F4B258",
"H c #F2B959",
"J c #F6C15B",
"K c #F7C35C",
"L c #FCC45D",
"P c #FFC164",
"I c #FFCA61",
"U c #FFCF64",
/* pixels */
"                ",
"                ",
"                ",
"          LK    ",
"           IJ   ",
"          .3U   ",
"   2      o,PH  ",
"   <     #OlDG  ",
"   t+@N %$1CSF  ",
"   0-X*nccMvSA  ",
"   ;5>&6dkjxC   ",
"   <:49qwifnB   ",
"    hr78eskz    ",
"      puup      ",
"                ",
"                "
};
