/* XPM */
static char *_f8ec9356d6f4455a8ad38cb537f1361X4SQyMjAHfNLLBsO[] = {
/* columns rows colors chars-per-pixel */
"64 64 206 2 ",
"   c None",
".  c #0A0101",
"X  c #140404",
"o  c #1C0303",
"O  c #260002",
"+  c #220707",
"@  c #2D0103",
"#  c #2A0204",
"$  c #2C0204",
"%  c #2E0907",
"&  c #270908",
"*  c #370103",
"=  c #340D0C",
"-  c #3C100F",
";  c #410305",
":  c #460205",
">  c #490204",
",  c #4E0407",
"<  c #4F0609",
"1  c #550308",
"2  c #550608",
"3  c #5F0609",
"4  c #42100F",
"5  c #5C0F10",
"6  c #471211",
"7  c #4F1514",
"8  c #5C1816",
"9  c #5A1918",
"0  c #67090C",
"q  c #6D0A0D",
"w  c #720A0E",
"e  c #770E10",
"r  c #611717",
"t  c #6B1D1B",
"y  c #6F1F1D",
"u  c #7B1114",
"i  c #7E1415",
"p  c #771918",
"a  c #68201D",
"s  c #76261F",
"d  c #6C301B",
"f  c #7A2C21",
"g  c #7C3821",
"h  c #841616",
"j  c #AF092B",
"k  c #812222",
"l  c #972726",
"z  c #912D29",
"x  c #9B2D29",
"c  c #9A3C2D",
"v  c #A82921",
"b  c #A62D2D",
"n  c #C30A34",
"m  c #D1063A",
"M  c #D9093C",
"N  c #CA2E3C",
"B  c #CF333E",
"V  c #834428",
"C  c #8B4A2A",
"Z  c #A34E2F",
"A  c #B14731",
"S  c #BD553A",
"D  c #B1673B",
"F  c #C3503A",
"G  c #C85C3D",
"H  c #ED0D44",
"J  c #E31040",
"K  c #E51041",
"L  c #E41141",
"P  c #E71142",
"I  c #EB1042",
"U  c #E81242",
"Y  c #E81543",
"T  c #E91943",
"R  c #E91C44",
"E  c #E81F44",
"W  c #F11145",
"Q  c #F71246",
"!  c #DC3643",
"~  c #E72244",
"^  c #E92244",
"/  c #E92545",
"(  c #EA2A45",
")  c #EB2D46",
"_  c #E92F46",
"`  c #EB3046",
"'  c #EB3347",
"]  c #EB3647",
"[  c #E63B46",
"{  c #EA3847",
"}  c #EC3B48",
"|  c #EC3F48",
" . c #EC3F49",
".. c #F13048",
"X. c #F03C49",
"o. c #F33D4A",
"O. c #F8394B",
"+. c #CF4440",
"@. c #D05543",
"#. c #EC4249",
"$. c #EA4549",
"%. c #ED4449",
"&. c #ED474A",
"*. c #ED494A",
"=. c #ED4B4A",
"-. c #EE4D4B",
";. c #EE4F4B",
":. c #EE514B",
">. c #ED524B",
",. c #EE534B",
"<. c #EF564C",
"1. c #ED5A4C",
"2. c #EF5D4D",
"3. c #EC5E4C",
"4. c #EF5E4D",
"5. c #F8514E",
"6. c #F0594C",
"7. c #F25C4E",
"8. c #FD5D51",
"9. c #CB6A41",
"0. c #DA6B46",
"q. c #D87547",
"w. c #D67E48",
"e. c #E56348",
"r. c #E9624A",
"t. c #EC644D",
"y. c #ED654E",
"u. c #EC684D",
"i. c #ED6D4E",
"p. c #F0614E",
"a. c #F0654E",
"s. c #F1674E",
"d. c #F16B4F",
"f. c #F06E4F",
"g. c #E2794A",
"h. c #F86350",
"j. c #FD6652",
"k. c #F76D51",
"l. c #F17150",
"z. c #F17450",
"x. c #F27751",
"c. c #FD7054",
"v. c #F27A51",
"b. c #F37A52",
"n. c #F27C51",
"m. c #F07E51",
"M. c #F37F52",
"N. c #FD7C55",
"B. c #ED824F",
"V. c #F38152",
"C. c #F38452",
"Z. c #F38553",
"A. c #F58254",
"S. c #F78755",
"D. c #F38853",
"F. c #F38A53",
"G. c #F38B53",
"H. c #F08D53",
"J. c #F28E54",
"K. c #F38E54",
"L. c #F68D54",
"P. c #FF8958",
"I. c #F29254",
"U. c #F59154",
"Y. c #F49255",
"T. c #F59756",
"R. c #FA9057",
"E. c #FA9557",
"W. c #F29855",
"Q. c #F09A54",
"!. c #F49955",
"~. c #F79957",
"^. c #F59B56",
"/. c #FF9458",
"(. c #FF9C59",
"). c #F6A057",
"_. c #F4A557",
"`. c #F5A757",
"'. c #F6A658",
"]. c #FDA65A",
"[. c #F7AA58",
"{. c #F7AF58",
"}. c #FFA95B",
"|. c #F8AF59",
" X c #F4B758",
".X c #F7B45A",
"XX c #F3BA59",
"oX c #F5BB59",
"OX c #F6B95A",
"+X c #F7BC5B",
"@X c #F7BD5B",
"#X c #F5BE5A",
"$X c #F9B85A",
"%X c #F9BB5A",
"&X c #F8BC5B",
"*X c #F9BF5B",
"=X c #FFBA5E",
"-X c #F6C05A",
";X c #F7C05B",
":X c #F7C35B",
">X c #F9C15B",
",X c #F8C25B",
"<X c #FAC35C",
"1X c #FFC55E",
"2X c #FFCA60",
"3X c #FFD162",
/* pixels */
"                                                                                                                                ",
"                                                                                                                                ",
"                                                                                                                                ",
"                                                                                                                                ",
"                                                                                                                                ",
"                                                                                                                                ",
"                                                                                                                                ",
"                                                                                                                                ",
"                                                                                                                                ",
"                                                                XXXX X#X                                                        ",
"                                                                    XX&X3X1X>X#X                                                ",
"                                                                          #X3X2X2X,XXX                                          ",
"                                                                            XX&X,X<X3X,X#X                                      ",
"                                                                                &X1X,X1X3X:X                                    ",
"                                                                                  @X1X,X,X3X,X                                  ",
"                                                                                    &X<X,X,X1X2X                                ",
"                                                                                      1X>X*X>X>X3X                              ",
"                                                                              # #     XX1X>X*X*X,X2X                            ",
"                                                                                &        X,X*X*X,X2X,X                          ",
"                            q.                                                  @ @     ~.1X*X*X&X,X3X;X                        ",
"                            9.                                                  # * #   V ].#X%X,X&X,X2X                        ",
"                          ~.F                                                     * @ O % w.].%X%X,X,X2X,X                      ",
"                          m.b                                                     * ; * o D (.[.%X%X%X,X2X                      ",
"                          m.l                                                     : ; ; o C (.~..X%X%X&X2X;X                    ",
"                        Z.0.b                                                   > , ; ; + d (.K.'.$X$X%X&X&X                    ",
"                        S.G b                                                   , , ; : % d (.K.T.|.$X$X&X2X                    ",
"                        P.S l x                                                 2 , , , * d (.K.U.'.$X.X&X2XXX                  ",
"                      u.P.S k z                                                 3 2 , , * g (.F.U.~.|..X.X=XOX                  ",
"                      i.N.G y z p               J.H.                          5 3 , 1 1 * Z /.D.J.U.[..X.X$X&X                  ",
"                      r.N.0.a s k               I.J.                        p q 3 3 1 1 : w.R.D.J.J.^.|.|. X$X                  ",
"                      y.k.f.s r s a             J./.                        e 0 0 3 0 , s E.D.D.F.F.~..X{.{.=X                  ",
"                      y.d.c.c 6 a p t           J.(.A.                    e w q 0 0 3 1 9.E.m.Z.F.F.U.[.[.{.=X                  ",
"                      $.d.k.@.6 7 8 t y         Z.E./.                  u u e w q q 1 Z (.V.V.V.G.D.K.`.[.[.=X                  ",
"                      ~ h.a.h.f = 7 9 9 8       1./.J.L.            i h u u e e q 0 c E.G.v.V.V.V.G.K.^.'.[.|.                  ",
"                      K O.a.h.@.- = 6 7 7 9 5   N c.I.L.R.      i h h h u u e q e S R.K.v.x.n.n.V.C.D.).[.'.`.                  ",
"                      K Q >.4.s.c + = - 6 7 7 6 k o.b.U.F./.g.A l u u e w e h A g.E.K.v.l.x.v.n.M.V.C.^.^.}.`.                  ",
"                        W ^ >.7.7.a o % = - 6 4 7 ! o.l.U.J.L.R.B.0.G G G 0.B.R.R.D.n.f.l.z.x.x.n.M.C.^.).}.I.                  ",
"                        U Y / >.6.:.9 X & & % - = l O.[ y.Z.J.F.F.R.R.R.R.R.L.G.C.l.s.f.l.l.z.x.v.n.V.^.^.}.Q.                  ",
"                        K W U / *.1.:.a . o + + & = B o.{ =.k.M.F.Z.Z.F.F.Z.m.k.p.p.s.d.f.f.l.z.x.v.C.T.^.(.                    ",
"                          Q U Y E { <.5.z + . X + X 7 | #.} { %.>.4.p.a.p.6.1.1.7.p.s.s.d.f.l.z.x.x.C.T.(.Q.                    ",
"                          U H Y Y T ( #.5.+.a & . . . r o.o.| #.#.%.*.*.-.>.<.6.7.4.p.a.s.d.f.l.z.z.G.U.(.Q.                    ",
"                    v     J Q U Y T T T ( o.5.+.z 7 & . 9 ! } | %.%.*.-.>.>.,.<.6.4.p.p.a.d.d.f.l.z.Z.U.U.                      ",
"                    t.h     H U Y Y Y E T E / ..O.o.! ! b B o.} #.%.*.*.-.-.>.<.1.7.4.7.p.a.d.f.f.z.G./.~.                      ",
"                      e.w > j W U Y Y T E E ^ ^ / / _ ..O.} { | #.#.%.%.*.-.-.>.<.1.4.4.p.a.s.d.k.m.S.G.                        ",
"                      A.e.0 : n W Y Y Y T T ^ ^ / ( ( ) ' ` ] } } | #.#.*.*.-.>.>.<.6.7.7.t.a.s.d.m.P.                          ",
"                        b.e.8 : M I P Y T T T E ^ / ( ( ) ` ` ] } } | #.*.*.*.-.>.>.<.6.7.p.p.a.l.P.I.                          ",
"                          c.k.f 1 M W H Y T E E ^ / / ( ) ' ' { ] } } | #.*.*.-.-.>.<.<.2.2.t.a.N.b.                            ",
"                            c.c.A u m Y Y Y T T E ^ / / ( ( ) ' ] } } | #.%.%.*.-.,.>.<.1.7.7.d.m.                              ",
"                              k.c.e.+.T P Y T T E ^ ^ / ( ( ) ' ] ] } } | #.%.%.*.;.:.:.<.:.h.m.                                ",
"                                s.j.k.p.) P P T T T E ^ / ( ( ) ` ` ] } } #.%.%.*.-.;.:.:.j.b.                                  ",
"                                  y.j.s.s.&.E P Y E E ^ ^ / ( ) ` ` ] ] } } #.#.%.*.*.;.j.i.                                    ",
"                                    t.h.j.y.7.#.^ Y Y T E / ( ( ` ` ` { { } } | #.*.8.a.                                        ",
"                                        f.h.j.s.4.&.{ / ^ E ^ / / ( ) ) ' { | ;.8.p.y.                                          ",
"                                            1.4.j.j.h.7.:.*.| |  . .#.*.5.8.j.y.u.                                              ",
"                                                  1.t.4.h.j.j.j.j.j.h.4.r.u.                                                    ",
"                                                                                                                                ",
"                                                                                                                                ",
"                                                                                                                                ",
"                                                                                                                                ",
"                                                                                                                                ",
"                                                                                                                                ",
"                                                                                                                                ",
"                                                                                                                                ",
"                                                                                                                                "
};
