/* XPM */
static char *_f74ba18e47f49d1fb99c0b42e052a1eieVrPdlIm2AgypC4[] = {
/* columns rows colors chars-per-pixel */
"32 32 195 2 ",
"   c None",
".  c #0D0202",
"X  c #160000",
"o  c #180604",
"O  c #260003",
"+  c #260808",
"@  c #2F0D0C",
"#  c #350001",
"$  c #340606",
"%  c #390E0D",
"&  c #3E1412",
"*  c #400003",
"=  c #460004",
"-  c #420607",
";  c #490003",
":  c #4C0A0C",
">  c #530005",
",  c #56070A",
"<  c #451111",
"1  c #521A11",
"2  c #501A17",
"3  c #5A1913",
"4  c #620007",
"5  c #650A0C",
"6  c #68080B",
"7  c #720A0E",
"8  c #730615",
"9  c #730E10",
"0  c #790F12",
"q  c #661C1A",
"w  c #7C1113",
"e  c #7E1415",
"r  c #642B1A",
"t  c #722821",
"y  c #831215",
"u  c #871B1A",
"i  c #881F1A",
"p  c #841D25",
"a  c #9E1D2B",
"s  c #802722",
"d  c #8D2825",
"f  c #932D2D",
"g  c #803320",
"h  c #A1302B",
"j  c #B52936",
"k  c #DA093C",
"l  c #DD083E",
"z  c #E10A3F",
"x  c #CF2F3E",
"c  c #C4313C",
"v  c #9E4132",
"b  c #A6482D",
"n  c #B04032",
"m  c #AD663A",
"M  c #C04633",
"N  c #C14C36",
"B  c #C9403E",
"V  c #C8463F",
"C  c #C05439",
"Z  c #C05B39",
"A  c #C56A3F",
"S  c #E51041",
"D  c #E71142",
"F  c #E51541",
"G  c #E91443",
"H  c #EE1744",
"J  c #E61E43",
"K  c #E81943",
"L  c #E81C44",
"P  c #E91F44",
"I  c #EA1E45",
"U  c #F61447",
"Y  c #E92244",
"T  c #E92645",
"R  c #E92845",
"E  c #EA2C46",
"W  c #EA2E46",
"Q  c #F02C48",
"!  c #F22E49",
"~  c #F72D4A",
"^  c #EA3247",
"/  c #EB3347",
"(  c #EB3747",
")  c #E63F47",
"_  c #EB3948",
"`  c #ED3E49",
"'  c #F03348",
"]  c #F13C4A",
"[  c #F9394B",
"{  c #FB3C4C",
"}  c #C94E41",
"|  c #D75F44",
" . c #EA4148",
".. c #EC4349",
"X. c #E74948",
"o. c #ED484A",
"O. c #ED4A4A",
"+. c #ED4E4B",
"@. c #F6424C",
"#. c #FA434D",
"$. c #FC414D",
"%. c #F64A4D",
"&. c #FA4A4E",
"*. c #F94F4F",
"=. c #ED514B",
"-. c #EE544B",
";. c #EE534C",
":. c #EE594C",
">. c #EE5B4C",
",. c #ED5C4C",
"<. c #ED5D4D",
"1. c #ED5E4D",
"2. c #EF5E4D",
"3. c #F3584E",
"4. c #F85B4F",
"5. c #D86946",
"6. c #DA7347",
"7. c #DC7048",
"8. c #DE7748",
"9. c #E9624C",
"0. c #ED634D",
"q. c #EE624D",
"w. c #EF634E",
"e. c #EF644E",
"r. c #E36D4A",
"t. c #EE694E",
"y. c #E86D4D",
"u. c #F0634E",
"i. c #F0684E",
"p. c #FF6152",
"a. c #F26A50",
"s. c #F26C50",
"d. c #F16E50",
"f. c #FF6B55",
"g. c #EF7150",
"h. c #F17350",
"j. c #F27751",
"k. c #F67652",
"l. c #FD7354",
"z. c #F67A53",
"x. c #F17C51",
"c. c #F27C51",
"v. c #EA814E",
"b. c #F28052",
"n. c #F18752",
"m. c #F58453",
"M. c #F58454",
"N. c #FF8057",
"B. c #F08852",
"V. c #F18A53",
"C. c #F28D54",
"Z. c #F28F54",
"A. c #F78E56",
"S. c #F88A55",
"D. c #FB8D57",
"F. c #F49054",
"G. c #F59155",
"H. c #F49255",
"J. c #F39455",
"K. c #F69456",
"L. c #FA9357",
"P. c #F59856",
"I. c #F49A56",
"U. c #FF9359",
"Y. c #F5A057",
"T. c #F3A557",
"R. c #FCA259",
"E. c #F7A958",
"W. c #F5AB58",
"Q. c #FFA85B",
"!. c #FFAF5C",
"~. c #F6B059",
"^. c #F7B35A",
"/. c #F5B459",
"(. c #FFB65E",
"). c #F6BC5A",
"_. c #F7BE5A",
"`. c #F7BF5B",
"'. c #F8B95A",
"]. c #F9BD5B",
"[. c #F8BE5B",
"{. c #F8BF5B",
"}. c #FFBC5E",
"|. c #FFBD5F",
" X c #F7C35B",
".X c #FAC05C",
"XX c #F8C35C",
"oX c #FFC15F",
"OX c #F8C45C",
"+X c #F8C55C",
"@X c #FBC45C",
"#X c #FFC65F",
"$X c #FFCA60",
"%X c #FFCD60",
"&X c #FFD062",
/* pixels */
"                                                                ",
"                                                                ",
"                                                                ",
"                                                                ",
"                                                                ",
"                                    ).[. X                      ",
"                                      [.&X@X X                  ",
"                                          @X&X@X                ",
"                                            #X#X@X              ",
"                                        O   oX.X%XOX            ",
"              C                         $ X m |.).%X            ",
"            7.n                         - # r R.'.#X).          ",
"            5.h                         : * 1 K.E.'.[.          ",
"            r.d                         , = 3 G.K.^.oX          ",
"            y.s         V.            6 5 ; g L.Z.E.oX/.        ",
"            l.t q       Z.            9 5 > A D.V.Y.|.^.        ",
"            f.v < q     S.K.      e w 7 4 b A.c.m.P.(.E.        ",
"            #.9.2 % 3 : B U.P.n u y w i Z A.j.c.c.G.!.T.        ",
"            F %.} @ + % p *.m.U.v.6.8.B.S.d.d.j.c.G.Q.          ",
"            D H ] } & . o j #.2.k.z.z.i.2.i.d.h.j.G.P.          ",
"              U F ! ) f & @ c ]  .o.+.-.3.e.i.d.h.U.J.          ",
"          M 6 k U F I ~ ' x x `  .o.+.;.>.q.u.i.h.D.            ",
"            N 8 l H L P Y Q ' ( ` ..o.+.;.>.2.q.N.B.            ",
"              | a z G L Y R E / _ ` ..o.+.-.>.f.c.              ",
"                d.X.K D L Y R E / _ `  .o.+.p.g.                ",
"                  a.p.' K K P T E / _ ` &.3.t.                  ",
"                    q.e.4.&.{ [ { $.&.;.2.                      ",
"                          q.q.2.2.2.                            ",
"                                                                ",
"                                                                ",
"                                                                ",
"                                                                "
};
